<svg xmlns="http://www.w3.org/2000/svg" width="77.721" height="65" viewBox="0 0 77.721 65">
    <defs>
        <style>
            .prefix__cls-1{fill:#eb5424}
        </style>
    </defs>
    <g id="prefix__Group_792" data-name="Group 792" transform="translate(-915.17 -417.202)">
        <path id="prefix__Path_1509" d="M932.224 436.958a15.682 15.682 0 0 1-3.634-2.423h-8.108c-3.075 0-5.312 2.423-5.312 5.755v3.331h24.6a51.959 51.959 0 0 1 3.635-4.543 30.312 30.312 0 0 1-11.181-2.12z" class="prefix__cls-1" data-name="Path 1509"/>
        <path id="prefix__Path_1510" d="M975.977 436.9a31.417 31.417 0 0 1-11.463 2.066c1.4 1.475 2.516 3.246 3.635 4.426h24.6v-3.246a5.459 5.459 0 0 0-5.312-5.607h-8.387a6.813 6.813 0 0 1-3.073 2.361z" class="prefix__cls-1" data-name="Path 1510"/>
        <path id="prefix__Path_1511" d="M969.686 417.2c-5.312 0-12.58 5.369-14.537 14.7h-3.076c-1.957-9.043-9.505-14.7-14.537-14.7a8.887 8.887 0 0 0-7.828 4.8s-5.592 11.022 3.075 13.848a32.641 32.641 0 0 0 11.462 1.978 13.494 13.494 0 0 0 3.355-.282c-9.785 8.478-12.3 17.521-12.3 17.521a33.512 33.512 0 0 1 4.194-2.26c.279 2.543 3.355 5.934 3.355 5.934 2.516-9.326 5.032-15.261 6.989-18.652V482.2h8.107v-42.389c1.957 3.391 4.753 9.326 6.99 18.934 0 0 3.075-3.391 3.354-5.934a15.455 15.455 0 0 1 4.194 2.26s-2.516-9.043-12.3-17.521a11.426 11.426 0 0 0 3.355.282A42.469 42.469 0 0 0 975 435.854c8.667-3.109 3.075-13.848 3.075-13.848a9.74 9.74 0 0 0-8.389-4.806zm-36.344 7.065a7.654 7.654 0 0 1 2.516-.283c8.387 0 12.022 6.5 13.14 9.892-5.032-.563-12.86-2.259-15.656-9.607zm25.162 9.609c1.4-3.109 4.752-9.892 13.139-9.892a7.647 7.647 0 0 1 2.516.283c-3.075 7.35-10.623 9.046-15.659 9.611z" class="prefix__cls-1" data-name="Path 1511"/>
        <path id="prefix__Path_1512" d="M979.929 465.834a1.192 1.192 0 0 0-.312.8 1.127 1.127 0 0 0 .285.739 1.957 1.957 0 0 0 .863.552v-2.6a1.682 1.682 0 0 0-.836.509z" class="prefix__cls-1" data-name="Path 1512"/>
        <path id="prefix__Path_1513" d="M982.057 470.387v2.927a1.9 1.9 0 0 0 1.085-.521 1.342 1.342 0 0 0 .419-.982 1.217 1.217 0 0 0-.351-.868 2.355 2.355 0 0 0-1.153-.556z" class="prefix__cls-1" data-name="Path 1513"/>
        <path id="prefix__Path_1514" d="M972.2 450.75c.839 1.957 1.4 3.355 1.4 3.355l1.4 4.753-3.634-3.355c-.28-.28-1.4-.839-2.237-1.4a14.743 14.743 0 0 1-3.355 5.032l-1.677 1.957-.559-2.516c-.839-3.075-1.4-5.591-2.237-8.107h-1.677v30.752h27.957a5.308 5.308 0 0 0 5.312-5.311v-25.16z" class="prefix__cls-1" data-name="Path 1514"/>
        <path id="prefix__Path_1515" d="M946.482 450.75a78.629 78.629 0 0 0-2.237 8.108l-.559 2.516-1.677-1.957a14.755 14.755 0 0 1-3.355-5.032 7.317 7.317 0 0 0-2.516 1.4l-3.075 2.517 1.118-3.914a9.562 9.562 0 0 1 1.4-3.355H915.17v25.161a5.308 5.308 0 0 0 5.312 5.312h27.957V450.75z" class="prefix__cls-1" data-name="Path 1515"/>
    </g>
</svg>
